<?xml version="1.0" encoding="UTF-8" standalone="no"?><!DOCTYPE svg PUBLIC "-//W3C//DTD SVG 1.1//EN" "http://www.w3.org/Graphics/SVG/1.1/DTD/svg11.dtd"><svg width="100%" height="100%" viewBox="0 0 67 67" version="1.1" xmlns="http://www.w3.org/2000/svg" xmlns:xlink="http://www.w3.org/1999/xlink" xml:space="preserve" style="fill-rule:evenodd;clip-rule:evenodd;stroke-miterlimit:10;"><rect id="Page-1" x="0" y="0" width="66.667" height="66.667" style="fill:none;"/><g><clipPath id="_clip1"><path d="M-81.25,-85.417l225,0l0,233.334l-225,0l0,-233.334Zm85.417,87.5l41.666,0l-1.473,-0.61l12.5,12.5l-0.61,-1.473l0,50l2.083,-2.083l-54.166,0l2.083,2.083l0,-62.5l-2.083,2.083Zm0,-4.166l-2.084,0l0,66.666l58.334,0l0,-2.083l0,-50l0,-0.863l-0.611,-0.61l-12.5,-12.5l-0.61,-0.61l-0.863,0l-41.666,0Z"/></clipPath><g clip-path="url(#_clip1)"><clipPath id="_clip2"><path d="M4.167,0l41.666,0l12.5,12.5l0,50l-54.166,0l0,-62.5Z"/></clipPath><g clip-path="url(#_clip2)"><path d="M4.167,0l41.666,0l12.5,12.5l0,50l-54.166,0l0,-62.5Z" style="fill:#ffc2c2;fill-rule:nonzero;"/></g></g></g><clipPath id="_clip3"><path d="M4.167,0l41.666,0l12.5,12.5l0,50l-54.166,0l0,-62.5Z"/></clipPath><g clip-path="url(#_clip3)"><path d="M4.167,0l41.666,0l12.5,12.5l0,50l-54.166,0l0,-62.5Z" style="fill:none;stroke:#e83d3c;stroke-width:8.33px;"/></g><clipPath id="_clip4"><path d="M37.5,8.333l4.167,0l0,12.5l-4.167,0l0,-12.5Zm4.167,8.334l8.333,0l0,4.166l-8.333,0l0,-4.166Z"/></clipPath><g clip-path="url(#_clip4)"><path d="M37.5,8.333l4.167,0l0,12.5l-4.167,0l0,-12.5Zm4.167,8.334l8.333,0l0,4.166l-8.333,0l0,-4.166Z" style="fill:none;stroke:#e83d3c;stroke-width:8.33px;"/></g><clipPath id="_clip5"><path d="M41.667,8.333l4.166,0l0,8.334l-4.166,0l0,-8.334Zm4.166,4.167l4.167,0l0,4.167l-4.167,0l0,-4.167Z"/></clipPath><g clip-path="url(#_clip5)"><path d="M41.667,8.333l4.166,0l0,8.334l-4.166,0l0,-8.334Zm4.166,4.167l4.167,0l0,4.167l-4.167,0l0,-4.167Z" style="fill:none;stroke:#fff;stroke-width:8.33px;"/></g><g><g opacity="0.5"><rect x="4.167" y="62.5" width="54.167" height="4.167" style="fill:#d8d8d8;fill-rule:nonzero;"/><clipPath id="_clip6"><rect x="4.167" y="62.5" width="54.167" height="4.167"/></clipPath><g clip-path="url(#_clip6)"><rect x="4.167" y="62.5" width="54.167" height="4.167" style="fill:none;stroke:#979797;stroke-width:8.33px;"/></g></g></g><clipPath id="_clip7"><path d="M33.333,25l0,-16.667l-20.833,0l0,45.834l37.5,0l0,-29.167l-16.667,0Z"/></clipPath><g clip-path="url(#_clip7)"><rect x="0" y="0" width="66.667" height="66.667" style="fill:#e83d3c;fill-rule:nonzero;"/></g><clipPath id="_clip8"><rect x="8.333" y="8.333" width="4.167" height="16.667"/></clipPath><g clip-path="url(#_clip8)"><rect x="-12.5" y="-12.5" width="45.833" height="58.333" style="fill:#ffc2c2;fill-rule:nonzero;"/></g><path d="M37.491,29.167l4.176,0l0,4.097l-4.254,0l0,-0.001c-0.659,0.007 -1.225,0.107 -1.734,0.282c-0.53,0.182 -0.978,0.444 -1.405,0.807c-0.387,0.303 -0.754,0.747 -1.1,1.271c-0.326,0.505 -0.631,1.09 -0.937,1.776l9.43,0l0,4.116l-11.059,0l-1.14,2.583c-0.469,0.908 -0.957,1.675 -1.467,2.341c-1.812,2.219 -4.194,3.349 -7.168,3.349l0,-4.136c0.876,0 1.629,-0.162 2.281,-0.464c0.591,-0.283 1.12,-0.707 1.629,-1.332c0.408,-0.525 0.815,-1.251 1.243,-2.179c0.325,-0.646 0.733,-1.614 1.201,-2.926l1.344,-3.248c0.529,-1.211 1.161,-2.2 1.792,-2.987c1.797,-2.22 4.154,-3.33 7.09,-3.349l0,0l0.061,0l0.017,0l0,0Z" style="fill:#fff;"/></svg>