<?xml version="1.0" encoding="UTF-8" standalone="no"?><!DOCTYPE svg PUBLIC "-//W3C//DTD SVG 1.1//EN" "http://www.w3.org/Graphics/SVG/1.1/DTD/svg11.dtd"><svg width="100%" height="100%" viewBox="0 0 67 67" version="1.1" xmlns="http://www.w3.org/2000/svg" xmlns:xlink="http://www.w3.org/1999/xlink" xml:space="preserve" style="fill-rule:evenodd;clip-rule:evenodd;stroke-miterlimit:10;"><rect id="Page-6" x="0" y="0" width="66.667" height="66.667" style="fill:none;"/><g><clipPath id="_clip1"><rect x="4.167" y="16.667" width="41.667" height="25"/></clipPath><g clip-path="url(#_clip1)"><rect x="4.167" y="16.667" width="41.667" height="25" style="fill:#f1d55b;fill-rule:nonzero;stroke:#6b5f21;stroke-width:8.33px;"/></g></g><g><clipPath id="_clip2"><rect x="4.167" y="8.333" width="20.833" height="8.333"/></clipPath><g clip-path="url(#_clip2)"><rect x="4.167" y="8.333" width="20.833" height="8.333" style="fill:#d8d8d8;fill-rule:nonzero;stroke:#675c23;stroke-width:8.33px;"/></g></g><g><clipPath id="_clip3"><rect x="25" y="8.333" width="29.167" height="4.167"/></clipPath><g clip-path="url(#_clip3)"><rect x="25" y="8.333" width="29.167" height="4.167" style="fill:#d8d8d8;fill-rule:nonzero;stroke:#4a4a4a;stroke-width:8.33px;"/></g></g><g><clipPath id="_clip4"><rect x="25" y="0" width="29.167" height="4.167"/></clipPath><g clip-path="url(#_clip4)"><rect x="25" y="0" width="29.167" height="4.167" style="fill:#d8d8d8;fill-rule:nonzero;stroke:#4a4a4a;stroke-width:8.33px;"/></g></g><g><clipPath id="_clip5"><rect x="54.167" y="4.167" width="4.167" height="4.167"/></clipPath><g clip-path="url(#_clip5)"><rect x="54.167" y="4.167" width="4.167" height="4.167" style="fill:#d8d8d8;fill-rule:nonzero;stroke:#4a4a4a;stroke-width:8.33px;"/></g></g><g><clipPath id="_clip6"><rect x="20.833" y="41.667" width="4.167" height="4.167"/></clipPath><g clip-path="url(#_clip6)"><rect x="20.833" y="41.667" width="4.167" height="4.167" style="fill:#d8d8d8;fill-rule:nonzero;stroke:#4a4a4a;stroke-width:8.33px;"/></g></g><g><clipPath id="_clip7"><rect x="20.833" y="4.167" width="4.167" height="4.167"/></clipPath><g clip-path="url(#_clip7)"><rect x="20.833" y="4.167" width="4.167" height="4.167" style="fill:#d8d8d8;fill-rule:nonzero;stroke:#4a4a4a;stroke-width:8.33px;"/></g></g><g><clipPath id="_clip8"><rect x="25" y="4.167" width="29.167" height="4.167"/></clipPath><g clip-path="url(#_clip8)"><rect x="25" y="4.167" width="29.167" height="4.167" style="fill:#d8d8d8;fill-rule:nonzero;stroke:#9b9b9b;stroke-width:8.33px;"/></g></g><g><clipPath id="_clip9"><rect x="25" y="41.667" width="29.167" height="4.167"/></clipPath><g clip-path="url(#_clip9)"><rect x="25" y="41.667" width="29.167" height="4.167" style="fill:#d8d8d8;fill-rule:nonzero;stroke:#9b9b9b;stroke-width:8.33px;"/></g></g><g><clipPath id="_clip10"><rect x="54.167" y="8.333" width="4.167" height="37.5"/></clipPath><g clip-path="url(#_clip10)"><rect x="54.167" y="8.333" width="4.167" height="37.5" style="fill:#d8d8d8;fill-rule:nonzero;stroke:#9b9b9b;stroke-width:8.33px;"/></g></g><g><clipPath id="_clip11"><rect x="45.833" y="37.5" width="4.167" height="4.167"/></clipPath><g clip-path="url(#_clip11)"><rect x="45.833" y="37.5" width="4.167" height="4.167" style="fill:#d8d8d8;fill-rule:nonzero;stroke:#000;stroke-width:8.33px;"/></g></g><g><clipPath id="_clip12"><rect x="50" y="12.5" width="4.167" height="29.167"/></clipPath><g clip-path="url(#_clip12)"><rect x="50" y="12.5" width="4.167" height="29.167" style="fill:#d8d8d8;fill-rule:nonzero;stroke:#4a4a4a;stroke-width:8.33px;"/></g></g><g><clipPath id="_clip13"><rect x="58.333" y="8.333" width="4.167" height="37.5"/></clipPath><g clip-path="url(#_clip13)"><rect x="58.333" y="8.333" width="4.167" height="37.5" style="fill:#d8d8d8;fill-rule:nonzero;stroke:#4a4a4a;stroke-width:8.33px;"/></g></g><g><clipPath id="_clip14"><rect x="29.167" y="54.167" width="33.333" height="8.333"/></clipPath><g clip-path="url(#_clip14)"><rect x="29.167" y="54.167" width="33.333" height="8.333" style="fill:#d8d8d8;fill-rule:nonzero;stroke:#4a4a4a;stroke-width:8.33px;"/></g></g><g><clipPath id="_clip15"><rect x="25" y="45.833" width="33.333" height="4.167"/></clipPath><g clip-path="url(#_clip15)"><rect x="25" y="45.833" width="33.333" height="4.167" style="fill:#d8d8d8;fill-rule:nonzero;stroke:#4a4a4a;stroke-width:8.33px;"/></g></g><g><clipPath id="_clip16"><rect x="41.667" y="50" width="12.5" height="4.167"/></clipPath><g clip-path="url(#_clip16)"><rect x="41.667" y="50" width="12.5" height="4.167" style="fill:#d8d8d8;fill-rule:nonzero;stroke:#4a4a4a;stroke-width:8.33px;"/></g></g><g><g opacity="0.5"><clipPath id="_clip17"><path d="M29.167,58.333l33.333,0l0,8.334l-20.833,0l-12.5,0l0,-8.334Z"/></clipPath><g clip-path="url(#_clip17)"><path d="M29.167,58.333l33.333,0l0,8.334l-20.833,0l-12.5,0l0,-8.334Z" style="fill:#d8d8d8;fill-rule:nonzero;"/></g><g><clipPath id="_clip18"><path d="M29.167,58.333l33.333,0l0,8.334l-20.833,0l-12.5,0l0,-8.334Z"/></clipPath><g clip-path="url(#_clip18)"><clipPath id="_clip19"><rect x="29.167" y="58.333" width="33.333" height="8.333"/></clipPath><g clip-path="url(#_clip19)"><path d="M29.167,58.333l33.333,0l0,8.334l-20.833,0l-12.5,0l0,-8.334Z" style="fill:none;stroke:#979797;stroke-width:8.33px;"/></g></g></g></g></g></svg>