<?xml version="1.0" encoding="UTF-8" standalone="no"?><!DOCTYPE svg PUBLIC "-//W3C//DTD SVG 1.1//EN" "http://www.w3.org/Graphics/SVG/1.1/DTD/svg11.dtd"><svg width="100%" height="100%" viewBox="0 0 67 67" version="1.1" xmlns="http://www.w3.org/2000/svg" xmlns:xlink="http://www.w3.org/1999/xlink" xml:space="preserve" style="fill-rule:evenodd;clip-rule:evenodd;stroke-miterlimit:10;"><rect id="Page-11" x="0" y="0" width="66.667" height="66.667" style="fill:none;"/><clipPath id="_clip1"><rect x="0" y="0" width="66.667" height="66.667"/></clipPath><g clip-path="url(#_clip1)"><g><clipPath id="_clip2"><path d="M8.333,15.625l51.042,0l0,39.583l-1.042,0l-50,0l-1.041,0l0,-1.041l0,-37.5l0,-1.042l1.041,0Z"/></clipPath><g clip-path="url(#_clip2)"><rect x="0" y="0" width="66.667" height="66.667" style="fill:url(#_Linear3);fill-rule:nonzero;"/><rect x="0" y="0" width="66.667" height="66.667" style="fill:url(#_Linear4);fill-rule:nonzero;"/></g></g><clipPath id="_clip5"><path d="M-37.5,-29.167l141.667,0l0,129.167l-141.667,0l0,-129.167Zm45.833,45.834l50,0l0,37.5l-50,0l0,-37.5Z"/></clipPath><g clip-path="url(#_clip5)"><rect x="8.333" y="16.667" width="50" height="37.5" style="fill:none;stroke:#d5bd4c;stroke-width:8.33px;"/></g><g><clipPath id="_clip6"><path d="M5.07,25l0.149,0l-0.021,-0.147l-0.128,0.147Zm56.378,0l0.149,0l-0.128,-0.147l-0.021,0.147Zm0.924,0.894l-0.021,0.148l0.149,0l-0.128,-0.148Zm-58.057,0.148l-0.021,-0.148l-0.127,0.148l0.148,0Zm-0.148,-2.084l59.534,0l-0.17,1.189l-4.166,29.167l-0.128,0.894l-0.904,0l-50,0l-0.903,0l-0.128,-0.894l-4.167,-29.167l-0.169,-1.189l1.201,0Z"/></clipPath><g clip-path="url(#_clip6)"><rect x="0" y="0" width="66.667" height="66.667" style="fill:url(#_Linear7);fill-rule:nonzero;"/><rect x="0" y="0" width="66.667" height="66.667" style="fill:url(#_Linear8);fill-rule:nonzero;"/></g></g><clipPath id="_clip9"><path d="M-41.667,-20.833l150,0l0,120.833l-150,0l0,-120.833Zm45.834,45.833l58.333,0l-4.167,29.167l-50,0l-4.166,-29.167Z"/></clipPath><g clip-path="url(#_clip9)"><path d="M4.167,25l58.333,0l-4.167,29.167l-50,0l-4.166,-29.167Z" style="fill:none;stroke:#b9a54a;stroke-width:8.33px;"/></g><g><clipPath id="_clip10"><path d="M-81.25,-81.25l204.974,0l0,183.333l-204.974,0l0,-183.333Zm85.417,87.5l29.166,0l-1.976,-1.425l4.167,12.5l1.976,-2.742l-33.333,0l2.083,2.084l0,-12.5l-2.083,2.083Zm0,-4.167l-2.084,0l0,16.667l38.307,0l-0.914,-2.742l-4.166,-12.5l-0.475,-1.425l-1.502,0l-29.166,0Z"/></clipPath><g clip-path="url(#_clip10)"><clipPath id="_clip11"><path d="M4.167,4.167l29.166,0l4.167,12.5l-33.333,0l0,-12.5Z"/></clipPath><g clip-path="url(#_clip11)"><path d="M4.167,4.167l29.166,0l4.167,12.5l-33.333,0l0,-12.5Z" style="fill:#fdef31;fill-rule:nonzero;"/></g></g></g><clipPath id="_clip12"><path d="M4.167,4.167l29.166,0l4.167,12.5l-33.333,0l0,-12.5Z"/></clipPath><g clip-path="url(#_clip12)"><path d="M4.167,4.167l29.166,0l4.167,12.5l-33.333,0l0,-12.5Z" style="fill:none;stroke:#d5bd4c;stroke-width:8.33px;"/></g><g><clipPath id="_clip13"><path d="M-77.083,-72.917l196.782,0l0,175l-196.782,0l0,-175Zm85.416,87.5l23.4,0l-1.945,-1.336l1.601,4.167l1.944,-2.831l-25,0l2.084,2.084l0,-4.167l-2.084,2.083Zm0,-4.166l-2.083,0l0,8.333l30.115,0l-1.087,-2.83l-1.6,-4.167l-0.514,-1.336l-1.431,0l-23.4,0Z"/></clipPath><g clip-path="url(#_clip13)"><clipPath id="_clip14"><path d="M8.333,12.5l23.4,0l1.6,4.167l-25,0l0,-4.167Z"/></clipPath><g clip-path="url(#_clip14)"><path d="M8.333,12.5l23.4,0l1.6,4.167l-25,0l0,-4.167Z" style="fill:#fdef31;fill-rule:nonzero;"/></g></g></g><clipPath id="_clip15"><path d="M8.333,12.5l23.4,0l1.6,4.167l-25,0l0,-4.167Z"/></clipPath><g clip-path="url(#_clip15)"><path d="M8.333,12.5l23.4,0l1.6,4.167l-25,0l0,-4.167Z" style="fill:none;stroke:#fdef31;stroke-width:8.33px;"/></g><g><g opacity="0.25"><rect x="4.167" y="58.333" width="58.333" height="4.167" style="fill:#d8d8d8;fill-rule:nonzero;"/><clipPath id="_clip16"><rect x="4.167" y="58.333" width="58.333" height="4.167"/></clipPath><g clip-path="url(#_clip16)"><rect x="4.167" y="58.333" width="58.333" height="4.167" style="fill:none;stroke:#979797;stroke-width:8.33px;"/></g></g></g><g><clipPath id="_clip17"><rect x="8.333" y="50" width="50" height="4.167"/></clipPath><g clip-path="url(#_clip17)"><rect x="8.333" y="50" width="50" height="4.167" style="fill:#d8d8d8;fill-rule:nonzero;stroke:#ffe859;stroke-width:8.33px;"/></g></g><g><clipPath id="_clip18"><rect x="8.333" y="54.167" width="50" height="4.167"/></clipPath><g clip-path="url(#_clip18)"><rect x="8.333" y="54.167" width="50" height="4.167" style="fill:#d8d8d8;fill-rule:nonzero;stroke:#b9a54a;stroke-width:8.33px;"/></g></g></g><defs><linearGradient id="_Linear3" x1="0" y1="0" x2="1" y2="0" gradientUnits="userSpaceOnUse" gradientTransform="matrix(2.61258e-13,4266.67,-4266.67,2.61258e-13,8.33333,16.6667)"><stop offset="0" style="stop-color:#fdef31;stop-opacity:0"/><stop offset="1" style="stop-color:#f1d55b;stop-opacity:0"/></linearGradient><linearGradient id="_Linear4" x1="0" y1="0" x2="1" y2="0" gradientUnits="userSpaceOnUse" gradientTransform="matrix(2.29621e-15,37.5,-37.5,2.29621e-15,33.3333,16.6667)"><stop offset="0" style="stop-color:#fdef31;stop-opacity:1"/><stop offset="1" style="stop-color:#f1d55b;stop-opacity:1"/></linearGradient><linearGradient id="_Linear7" x1="0" y1="0" x2="1" y2="0" gradientUnits="userSpaceOnUse" gradientTransform="matrix(2.61258e-13,4266.67,-4266.67,2.61258e-13,4.16667,25)"><stop offset="0" style="stop-color:#e4cb59;stop-opacity:0"/><stop offset="1" style="stop-color:#f1d55b;stop-opacity:0"/></linearGradient><linearGradient id="_Linear8" x1="0" y1="0" x2="1" y2="0" gradientUnits="userSpaceOnUse" gradientTransform="matrix(1.78594e-15,29.1667,-29.1667,1.78594e-15,33.3333,25)"><stop offset="0" style="stop-color:#e4cb59;stop-opacity:1"/><stop offset="1" style="stop-color:#f1d55b;stop-opacity:1"/></linearGradient></defs></svg>