<?xml version="1.0" encoding="UTF-8" standalone="no"?><!DOCTYPE svg PUBLIC "-//W3C//DTD SVG 1.1//EN" "http://www.w3.org/Graphics/SVG/1.1/DTD/svg11.dtd"><svg width="100%" height="100%" viewBox="0 0 67 67" version="1.1" xmlns="http://www.w3.org/2000/svg" xmlns:xlink="http://www.w3.org/1999/xlink" xml:space="preserve" style="fill-rule:evenodd;clip-rule:evenodd;stroke-miterlimit:10;"><rect id="Page-27" x="0" y="0" width="66.667" height="66.667" style="fill:none;"/><g><clipPath id="_clip1"><path d="M-81.25,-85.417l225,0l0,233.334l-225,0l0,-233.334Zm85.417,87.5l41.666,0l-1.473,-0.61l12.5,12.5l-0.61,-1.473l0,50l2.083,-2.083l-54.166,0l2.083,2.083l0,-62.5l-2.083,2.083Zm0,-4.166l-2.084,0l0,66.666l58.334,0l0,-2.083l0,-50l0,-0.863l-0.611,-0.61l-12.5,-12.5l-0.61,-0.61l-0.863,0l-41.666,0Z"/></clipPath><g clip-path="url(#_clip1)"><clipPath id="_clip2"><path d="M4.167,0l41.666,0l12.5,12.5l0,50l-54.166,0l0,-62.5Z"/></clipPath><g clip-path="url(#_clip2)"><path d="M4.167,0l41.666,0l12.5,12.5l0,50l-54.166,0l0,-62.5Z" style="fill:#ffb5a6;fill-rule:nonzero;"/></g></g></g><clipPath id="_clip3"><path d="M4.167,0l41.666,0l12.5,12.5l0,50l-54.166,0l0,-62.5Z"/></clipPath><g clip-path="url(#_clip3)"><path d="M4.167,0l41.666,0l12.5,12.5l0,50l-54.166,0l0,-62.5Z" style="fill:none;stroke:#e54e30;stroke-width:8.33px;"/></g><clipPath id="_clip4"><path d="M41.667,8.333l4.166,0l0,8.334l-4.166,0l0,-8.334Zm4.166,4.167l4.167,0l0,4.167l-4.167,0l0,-4.167Z"/></clipPath><g clip-path="url(#_clip4)"><path d="M41.667,8.333l4.166,0l0,8.334l-4.166,0l0,-8.334Zm4.166,4.167l4.167,0l0,4.167l-4.167,0l0,-4.167Z" style="fill:none;stroke:#fff;stroke-width:8.33px;"/></g><clipPath id="_clip5"><path d="M37.5,8.333l4.167,0l0,12.5l-4.167,0l0,-12.5Zm4.167,8.334l8.333,0l0,4.166l-8.333,0l0,-4.166Z"/></clipPath><g clip-path="url(#_clip5)"><path d="M37.5,8.333l4.167,0l0,12.5l-4.167,0l0,-12.5Zm4.167,8.334l8.333,0l0,4.166l-8.333,0l0,-4.166Z" style="fill:none;stroke:#e54e30;stroke-width:8.33px;"/></g><g><g opacity="0.5"><rect x="4.167" y="62.5" width="54.167" height="4.167" style="fill:#d8d8d8;fill-rule:nonzero;"/><clipPath id="_clip6"><rect x="4.167" y="62.5" width="54.167" height="4.167"/></clipPath><g clip-path="url(#_clip6)"><rect x="4.167" y="62.5" width="54.167" height="4.167" style="fill:none;stroke:#979797;stroke-width:8.33px;"/></g></g></g><clipPath id="_clip7"><path d="M33.333,25l0,-16.667l-20.833,0l0,45.834l37.5,0l0,-29.167l-16.667,0Z"/></clipPath><g clip-path="url(#_clip7)"><rect x="0" y="0" width="66.667" height="66.667" style="fill:#e54e30;fill-rule:nonzero;"/></g><clipPath id="_clip8"><path d="M22.917,29.167c3.451,0 6.25,-2.799 6.25,-6.25c0,-3.452 -2.799,-6.25 -6.25,-6.25c-3.452,0 -6.25,2.798 -6.25,6.25c0,3.451 2.798,6.25 6.25,6.25Z"/></clipPath><g clip-path="url(#_clip8)"><rect x="-4.167" y="-4.167" width="54.167" height="54.167" style="fill:#fff;fill-rule:nonzero;"/></g><clipPath id="_clip9"><path d="M40.417,45.833c3.451,0 6.25,-2.798 6.25,-6.25c0,-3.451 -2.799,-6.25 -6.25,-6.25c-3.452,0 -6.25,2.799 -6.25,6.25c0,3.452 2.798,6.25 6.25,6.25Z"/></clipPath><g clip-path="url(#_clip9)"><rect x="13.333" y="12.5" width="54.167" height="54.167" style="fill:#fff;fill-rule:nonzero;"/></g><clipPath id="_clip10"><path d="M22.917,50c3.451,0 6.25,-2.798 6.25,-6.25c0,-3.452 -2.799,-6.25 -6.25,-6.25c-3.452,0 -6.25,2.798 -6.25,6.25c0,3.452 2.798,6.25 6.25,6.25Z"/></clipPath><g clip-path="url(#_clip10)"><rect x="-4.167" y="16.667" width="54.167" height="54.167" style="fill:#fff;fill-rule:nonzero;"/></g><clipPath id="_clip11"><path d="M12.33,8.504l28.689,28.689l-2.946,2.946l-28.69,-28.689l2.947,-2.946Z"/></clipPath><g clip-path="url(#_clip11)"><path d="M-20.079,11.45l32.409,-32.409l58.152,58.152l-32.409,32.409l-58.152,-58.152Z" style="fill:#fff;fill-rule:nonzero;"/></g><clipPath id="_clip12"><rect x="20.833" y="20.833" width="4.167" height="25"/></clipPath><g clip-path="url(#_clip12)"><rect x="0" y="0" width="45.833" height="66.667" style="fill:#fff;fill-rule:nonzero;"/></g><clipPath id="_clip13"><rect x="8.333" y="8.333" width="4.167" height="16.667"/></clipPath><g clip-path="url(#_clip13)"><rect x="-12.5" y="-12.5" width="45.833" height="58.333" style="fill:#ffb5a6;fill-rule:nonzero;"/></g></svg>