<?xml version="1.0" encoding="UTF-8" standalone="no"?><!DOCTYPE svg PUBLIC "-//W3C//DTD SVG 1.1//EN" "http://www.w3.org/Graphics/SVG/1.1/DTD/svg11.dtd"><svg width="100%" height="100%" viewBox="0 0 67 67" version="1.1" xmlns="http://www.w3.org/2000/svg" xmlns:xlink="http://www.w3.org/1999/xlink" xml:space="preserve" style="fill-rule:evenodd;clip-rule:evenodd;stroke-miterlimit:10;"><rect id="Page-41" x="0" y="0" width="66.667" height="66.667" style="fill:none;"/><g><clipPath id="_clip1"><path d="M-81.25,-85.417l225,0l0,233.334l-225,0l0,-233.334Zm85.417,87.5l41.666,0l-1.473,-0.61l12.5,12.5l-0.61,-1.473l0,50l2.083,-2.083l-54.166,0l2.083,2.083l0,-62.5l-2.083,2.083Zm0,-4.166l-2.084,0l0,66.666l58.334,0l0,-2.083l0,-50l0,-0.863l-0.611,-0.61l-12.5,-12.5l-0.61,-0.61l-0.863,0l-41.666,0Z"/></clipPath><g clip-path="url(#_clip1)"><clipPath id="_clip2"><path d="M4.167,0l41.666,0l12.5,12.5l0,50l-54.166,0l0,-62.5Z"/></clipPath><g clip-path="url(#_clip2)"><path d="M4.167,0l41.666,0l12.5,12.5l0,50l-54.166,0l0,-62.5Z" style="fill:#fff;fill-rule:nonzero;"/></g></g></g><clipPath id="_clip3"><path d="M4.167,0l41.666,0l12.5,12.5l0,50l-54.166,0l0,-62.5Z"/></clipPath><g clip-path="url(#_clip3)"><path d="M4.167,0l41.666,0l12.5,12.5l0,50l-54.166,0l0,-62.5Z" style="fill:none;stroke:#f5a623;stroke-width:8.33px;"/></g><clipPath id="_clip4"><path d="M37.5,8.333l4.167,0l0,12.5l-4.167,0l0,-12.5Zm4.167,8.334l8.333,0l0,4.166l-8.333,0l0,-4.166Z"/></clipPath><g clip-path="url(#_clip4)"><path d="M37.5,8.333l4.167,0l0,12.5l-4.167,0l0,-12.5Zm4.167,8.334l8.333,0l0,4.166l-8.333,0l0,-4.166Z" style="fill:none;stroke:#f5a623;stroke-width:8.33px;"/></g><g><g opacity="0.5"><rect x="4.167" y="62.5" width="54.167" height="4.167" style="fill:#d8d8d8;fill-rule:nonzero;"/><clipPath id="_clip5"><rect x="4.167" y="62.5" width="54.167" height="4.167"/></clipPath><g clip-path="url(#_clip5)"><rect x="4.167" y="62.5" width="54.167" height="4.167" style="fill:none;stroke:#979797;stroke-width:8.33px;"/></g></g></g><g><clipPath id="_clip6"><path d="M33.333,25l0,-16.667l-20.833,0l0,45.834l37.5,0l0,-29.167l-16.667,0Z"/></clipPath><g clip-path="url(#_clip6)"><rect x="0" y="0" width="66.667" height="66.667" style="fill:url(#_Linear7);fill-rule:nonzero;"/><rect x="0" y="0" width="66.667" height="66.667" style="fill:url(#_Linear8);fill-rule:nonzero;"/></g></g><clipPath id="_clip9"><path d="M25,50c8.333,0 4.167,-3.731 4.167,-8.333c0,-4.603 -3.731,-8.334 -8.334,-8.334c-4.602,0 -8.333,3.731 -8.333,8.334c0,4.602 4.167,8.333 12.5,8.333Z"/></clipPath><g clip-path="url(#_clip9)"><path d="M25,50c8.333,0 4.167,-3.731 4.167,-8.333c0,-4.603 -3.731,-8.334 -8.334,-8.334c-4.602,0 -8.333,3.731 -8.333,8.334c0,4.602 4.167,8.333 12.5,8.333Z" style="fill:none;stroke:#f5a623;stroke-width:8.33px;"/></g><g><clipPath id="_clip10"><path d="M-65.041,-52.083l200.916,0l0,191.666l-200.916,0l0,-191.666Zm85.874,87.5l29.167,0l-2.043,-2.492l-4.167,20.833l2.043,-1.675l-20.833,0l2.043,1.675l-4.167,-20.833l-2.043,2.492Zm0,-4.167l-2.541,0l4.665,23.325l0.335,1.675l24.249,0l0.335,-1.675l4.167,-20.833l0.498,-2.492l-2.541,0l-29.167,0Z"/></clipPath><g clip-path="url(#_clip10)"><clipPath id="_clip11"><path d="M20.833,33.333l29.167,0l-4.167,20.834l-20.833,0l-4.167,-20.834Z"/></clipPath><g clip-path="url(#_clip11)"><path d="M20.833,33.333l29.167,0l-4.167,20.834l-20.833,0l-4.167,-20.834Z" style="fill:#fff;fill-rule:nonzero;"/></g></g></g><clipPath id="_clip12"><path d="M20.833,33.333l29.167,0l-4.167,20.834l-20.833,0l-4.167,-20.834Z"/></clipPath><g clip-path="url(#_clip12)"><path d="M20.833,33.333l29.167,0l-4.167,20.834l-20.833,0l-4.167,-20.834Z" style="fill:none;stroke:#f5a623;stroke-width:8.33px;"/></g><g><clipPath id="_clip13"><rect x="45.833" y="25" width="4.167" height="4.167"/></clipPath><g clip-path="url(#_clip13)"><rect x="45.833" y="25" width="4.167" height="4.167" style="fill:#d8d8d8;fill-rule:nonzero;stroke:#f5a623;stroke-width:8.33px;"/></g></g><g><clipPath id="_clip14"><rect x="37.5" y="25" width="4.167" height="4.167"/></clipPath><g clip-path="url(#_clip14)"><rect x="37.5" y="25" width="4.167" height="4.167" style="fill:#d8d8d8;fill-rule:nonzero;stroke:#f5a623;stroke-width:8.33px;"/></g></g><g><clipPath id="_clip15"><rect x="29.167" y="25" width="4.167" height="4.167"/></clipPath><g clip-path="url(#_clip15)"><rect x="29.167" y="25" width="4.167" height="4.167" style="fill:#d8d8d8;fill-rule:nonzero;stroke:#f5a623;stroke-width:8.33px;"/></g></g><g><clipPath id="_clip16"><rect x="20.833" y="25" width="4.167" height="4.167"/></clipPath><g clip-path="url(#_clip16)"><rect x="20.833" y="25" width="4.167" height="4.167" style="fill:#d8d8d8;fill-rule:nonzero;stroke:#f5a623;stroke-width:8.33px;"/></g></g><defs><linearGradient id="_Linear7" x1="0" y1="0" x2="1" y2="0" gradientUnits="userSpaceOnUse" gradientTransform="matrix(2.61258e-13,4266.67,-4266.67,2.61258e-13,12.5,8.33333)"><stop offset="0" style="stop-color:#ff945a;stop-opacity:0"/><stop offset="1" style="stop-color:#fff;stop-opacity:0"/></linearGradient><linearGradient id="_Linear8" x1="0" y1="0" x2="1" y2="0" gradientUnits="userSpaceOnUse" gradientTransform="matrix(2.80648e-15,45.8333,-45.8333,2.80648e-15,31.25,8.33333)"><stop offset="0" style="stop-color:#ff945a;stop-opacity:0.25098"/><stop offset="1" style="stop-color:#fff;stop-opacity:0.25098"/></linearGradient></defs></svg>