<?xml version="1.0" encoding="UTF-8" standalone="no"?><!DOCTYPE svg PUBLIC "-//W3C//DTD SVG 1.1//EN" "http://www.w3.org/Graphics/SVG/1.1/DTD/svg11.dtd"><svg width="100%" height="100%" viewBox="0 0 67 67" version="1.1" xmlns="http://www.w3.org/2000/svg" xmlns:xlink="http://www.w3.org/1999/xlink" xml:space="preserve" style="fill-rule:evenodd;clip-rule:evenodd;stroke-miterlimit:10;"><rect id="Page-50" x="0" y="0" width="66.667" height="66.667" style="fill:none;"/><g><clipPath id="_clip1"><path d="M-81.25,-85.417l225,0l0,233.334l-225,0l0,-233.334Zm85.417,87.5l41.666,0l-1.473,-0.61l12.5,12.5l-0.61,-1.473l0,50l2.083,-2.083l-54.166,0l2.083,2.083l0,-62.5l-2.083,2.083Zm0,-4.166l-2.084,0l0,66.666l58.334,0l0,-2.083l0,-50l0,-0.863l-0.611,-0.61l-12.5,-12.5l-0.61,-0.61l-0.863,0l-41.666,0Z"/></clipPath><g clip-path="url(#_clip1)"><clipPath id="_clip2"><path d="M4.167,0l41.666,0l12.5,12.5l0,50l-54.166,0l0,-62.5Z"/></clipPath><g clip-path="url(#_clip2)"><path d="M4.167,0l41.666,0l12.5,12.5l0,50l-54.166,0l0,-62.5Z" style="fill:#fff;fill-rule:nonzero;"/></g></g></g><clipPath id="_clip3"><path d="M4.167,0l41.666,0l12.5,12.5l0,50l-54.166,0l0,-62.5Z"/></clipPath><g clip-path="url(#_clip3)"><path d="M4.167,0l41.666,0l12.5,12.5l0,50l-54.166,0l0,-62.5Z" style="fill:none;stroke:#9b9b9b;stroke-width:8.33px;"/></g><g><clipPath id="_clip4"><path d="M-47.917,-77.083l183.334,0l0,183.333l-183.334,0l0,-183.333Zm85.417,87.5l4.167,0l-2.084,-2.084l0,12.5l2.084,-2.083l-4.167,0l2.083,2.083l0,-12.5l-2.083,2.084Zm0,-4.167l-2.083,0l0,16.667l8.333,0l0,-2.084l0,-12.5l0,-2.083l-2.083,0l-4.167,0Zm4.167,12.5l8.333,0l-2.083,-2.083l0,4.166l2.083,-2.083l-8.333,0l2.083,2.083l0,-4.166l-2.083,2.083Zm0,-4.167l-2.084,0l0,8.334l12.5,0l0,-2.084l0,-4.166l0,-2.084l-2.083,0l-8.333,0Z"/></clipPath><g clip-path="url(#_clip4)"><clipPath id="_clip5"><path d="M37.5,8.333l4.167,0l0,12.5l-4.167,0l0,-12.5Zm4.167,8.334l8.333,0l0,4.166l-8.333,0l0,-4.166Z"/></clipPath><g clip-path="url(#_clip5)"><path d="M37.5,8.333l4.167,0l0,12.5l-4.167,0l0,-12.5Zm4.167,8.334l8.333,0l0,4.166l-8.333,0l0,-4.166Z" style="fill:#d8d8d8;fill-rule:nonzero;"/></g></g></g><clipPath id="_clip6"><path d="M37.5,8.333l4.167,0l0,12.5l-4.167,0l0,-12.5Zm4.167,8.334l8.333,0l0,4.166l-8.333,0l0,-4.166Z"/></clipPath><g clip-path="url(#_clip6)"><path d="M37.5,8.333l4.167,0l0,12.5l-4.167,0l0,-12.5Zm4.167,8.334l8.333,0l0,4.166l-8.333,0l0,-4.166Z" style="fill:none;stroke:#9b9b9b;stroke-width:8.33px;"/></g><g><g opacity="0.5"><rect x="4.167" y="62.5" width="54.167" height="4.167" style="fill:#d8d8d8;fill-rule:nonzero;"/><clipPath id="_clip7"><rect x="4.167" y="62.5" width="54.167" height="4.167"/></clipPath><g clip-path="url(#_clip7)"><rect x="4.167" y="62.5" width="54.167" height="4.167" style="fill:none;stroke:#979797;stroke-width:8.33px;"/></g></g></g><g><clipPath id="_clip8"><path d="M33.333,25l0,-16.667l-20.833,0l0,45.834l37.5,0l0,-29.167l-16.667,0Z"/></clipPath><g clip-path="url(#_clip8)"><rect x="0" y="0" width="66.667" height="66.667" style="fill:url(#_Linear9);fill-rule:nonzero;"/><rect x="0" y="0" width="66.667" height="66.667" style="fill:url(#_Linear10);fill-rule:nonzero;"/></g></g><g><clipPath id="_clip11"><rect x="12.5" y="8.333" width="20.833" height="4.167"/></clipPath><g clip-path="url(#_clip11)"><rect x="12.5" y="8.333" width="20.833" height="4.167" style="fill:#d8d8d8;fill-rule:nonzero;stroke:#9b9b9b;stroke-width:8.33px;"/></g></g><g><clipPath id="_clip12"><rect x="12.5" y="16.667" width="20.833" height="4.167"/></clipPath><g clip-path="url(#_clip12)"><rect x="12.5" y="16.667" width="20.833" height="4.167" style="fill:#d8d8d8;fill-rule:nonzero;stroke:#9b9b9b;stroke-width:8.33px;"/></g></g><g><clipPath id="_clip13"><rect x="12.5" y="25" width="37.5" height="4.167"/></clipPath><g clip-path="url(#_clip13)"><rect x="12.5" y="25" width="37.5" height="4.167" style="fill:#d8d8d8;fill-rule:nonzero;stroke:#9b9b9b;stroke-width:8.33px;"/></g></g><g><clipPath id="_clip14"><rect x="12.5" y="50" width="37.5" height="4.167"/></clipPath><g clip-path="url(#_clip14)"><rect x="12.5" y="50" width="37.5" height="4.167" style="fill:#d8d8d8;fill-rule:nonzero;stroke:#9b9b9b;stroke-width:8.33px;"/></g></g><g><clipPath id="_clip15"><rect x="12.5" y="41.667" width="37.5" height="4.167"/></clipPath><g clip-path="url(#_clip15)"><rect x="12.5" y="41.667" width="37.5" height="4.167" style="fill:#d8d8d8;fill-rule:nonzero;stroke:#9b9b9b;stroke-width:8.33px;"/></g></g><g><clipPath id="_clip16"><rect x="12.5" y="33.333" width="37.5" height="4.167"/></clipPath><g clip-path="url(#_clip16)"><rect x="12.5" y="33.333" width="37.5" height="4.167" style="fill:#d8d8d8;fill-rule:nonzero;stroke:#9b9b9b;stroke-width:8.33px;"/></g></g><defs><linearGradient id="_Linear9" x1="0" y1="0" x2="1" y2="0" gradientUnits="userSpaceOnUse" gradientTransform="matrix(2.61258e-13,4266.67,-4266.67,2.61258e-13,12.5,8.33333)"><stop offset="0" style="stop-color:#dee0e1;stop-opacity:0"/><stop offset="1" style="stop-color:#fff;stop-opacity:0"/></linearGradient><linearGradient id="_Linear10" x1="0" y1="0" x2="1" y2="0" gradientUnits="userSpaceOnUse" gradientTransform="matrix(2.80648e-15,45.8333,-45.8333,2.80648e-15,31.25,8.33333)"><stop offset="0" style="stop-color:#dee0e1;stop-opacity:1"/><stop offset="1" style="stop-color:#fff;stop-opacity:1"/></linearGradient></defs></svg>