<?xml version="1.0" encoding="UTF-8" standalone="no"?><!DOCTYPE svg PUBLIC "-//W3C//DTD SVG 1.1//EN" "http://www.w3.org/Graphics/SVG/1.1/DTD/svg11.dtd"><svg width="100%" height="100%" viewBox="0 0 67 67" version="1.1" xmlns="http://www.w3.org/2000/svg" xmlns:xlink="http://www.w3.org/1999/xlink" xml:space="preserve" style="fill-rule:evenodd;clip-rule:evenodd;stroke-miterlimit:10;"><rect id="Page-59" x="0" y="0" width="66.667" height="66.667" style="fill:none;"/><g><clipPath id="_clip1"><path d="M-81.25,-85.417l225,0l0,233.334l-225,0l0,-233.334Zm85.417,87.5l41.666,0l-1.473,-0.61l12.5,12.5l-0.61,-1.473l0,50l2.083,-2.083l-54.166,0l2.083,2.083l0,-62.5l-2.083,2.083Zm0,-4.166l-2.084,0l0,66.666l58.334,0l0,-2.083l0,-50l0,-0.863l-0.611,-0.61l-12.5,-12.5l-0.61,-0.61l-0.863,0l-41.666,0Z"/></clipPath><g clip-path="url(#_clip1)"><clipPath id="_clip2"><path d="M4.167,0l41.666,0l12.5,12.5l0,50l-54.166,0l0,-62.5Z"/></clipPath><g clip-path="url(#_clip2)"><path d="M4.167,0l41.666,0l12.5,12.5l0,50l-54.166,0l0,-62.5Z" style="fill:#fff;fill-rule:nonzero;"/></g></g></g><clipPath id="_clip3"><path d="M4.167,0l41.666,0l12.5,12.5l0,50l-54.166,0l0,-62.5Z"/></clipPath><g clip-path="url(#_clip3)"><path d="M4.167,0l41.666,0l12.5,12.5l0,50l-54.166,0l0,-62.5Z" style="fill:none;stroke:#979797;stroke-width:8.33px;"/></g><g><clipPath id="_clip4"><path d="M-47.917,-77.083l183.334,0l0,183.333l-183.334,0l0,-183.333Zm85.417,87.5l4.167,0l-2.084,-2.084l0,12.5l2.084,-2.083l-4.167,0l2.083,2.083l0,-12.5l-2.083,2.084Zm0,-4.167l-2.083,0l0,16.667l8.333,0l0,-2.084l0,-12.5l0,-2.083l-2.083,0l-4.167,0Zm4.167,12.5l8.333,0l-2.083,-2.083l0,4.166l2.083,-2.083l-8.333,0l2.083,2.083l0,-4.166l-2.083,2.083Zm0,-4.167l-2.084,0l0,8.334l12.5,0l0,-2.084l0,-4.166l0,-2.084l-2.083,0l-8.333,0Z"/></clipPath><g clip-path="url(#_clip4)"><clipPath id="_clip5"><path d="M37.5,8.333l4.167,0l0,12.5l-4.167,0l0,-12.5Zm4.167,8.334l8.333,0l0,4.166l-8.333,0l0,-4.166Z"/></clipPath><g clip-path="url(#_clip5)"><path d="M37.5,8.333l4.167,0l0,12.5l-4.167,0l0,-12.5Zm4.167,8.334l8.333,0l0,4.166l-8.333,0l0,-4.166Z" style="fill:#d8d8d8;fill-rule:nonzero;"/></g></g></g><clipPath id="_clip6"><path d="M37.5,8.333l4.167,0l0,12.5l-4.167,0l0,-12.5Zm4.167,8.334l8.333,0l0,4.166l-8.333,0l0,-4.166Z"/></clipPath><g clip-path="url(#_clip6)"><path d="M37.5,8.333l4.167,0l0,12.5l-4.167,0l0,-12.5Zm4.167,8.334l8.333,0l0,4.166l-8.333,0l0,-4.166Z" style="fill:none;stroke:#979797;stroke-width:8.33px;"/></g><g><g opacity="0.5"><rect x="4.167" y="62.5" width="54.167" height="4.167" style="fill:#d8d8d8;fill-rule:nonzero;"/><clipPath id="_clip7"><rect x="4.167" y="62.5" width="54.167" height="4.167"/></clipPath><g clip-path="url(#_clip7)"><rect x="4.167" y="62.5" width="54.167" height="4.167" style="fill:none;stroke:#979797;stroke-width:8.33px;"/></g></g></g><g><clipPath id="_clip8"><path d="M33.333,25l0,-16.667l-20.833,0l0,45.834l37.5,0l0,-29.167l-16.667,0Z"/></clipPath><g clip-path="url(#_clip8)"><rect x="0" y="0" width="66.667" height="66.667" style="fill:url(#_Linear9);fill-rule:nonzero;"/><rect x="0" y="0" width="66.667" height="66.667" style="fill:url(#_Linear10);fill-rule:nonzero;"/></g></g><clipPath id="_clip11"><path d="M23.941,15.57c-1.833,0.39 -3.019,2.194 -2.634,4.006c0.505,2.375 2.59,5.234 4.707,7.854c-0.404,3.925 -0.905,8.183 -1.948,11.901c-0.004,0.001 -0.008,0.002 -0.011,0.003c-3.198,2.097 -6.078,3.78 -7.534,5.55c-0.02,0.023 -0.04,0.047 -0.057,0.072c-0.472,0.735 -0.641,1.654 -0.451,2.549c0.385,1.812 2.203,2.977 4.036,2.588c0.903,-0.192 1.698,-0.701 2.183,-1.457c0.009,-0.018 0.017,-0.035 0.025,-0.054c0.988,-1.837 2.001,-5.151 2.869,-8.136c0.001,-0.005 0.008,-0.009 0.009,-0.014c3.096,-2.031 6.372,-4.141 9.651,-5.665c2.753,1.422 6.595,1.985 9.407,1.387c1.833,-0.39 3.019,-2.194 2.634,-4.006c-0.385,-1.812 -2.202,-2.978 -4.035,-2.588c-2.277,0.484 -5.6,2.076 -7.983,3.491c-2.636,-1.546 -5.21,-3.663 -7.221,-6.075c0.345,-3.27 0.861,-6.593 0.388,-8.817c-0.385,-1.813 -2.202,-2.978 -4.035,-2.589Zm0.311,1.466c1.032,-0.22 2.025,0.417 2.242,1.438c0.293,1.375 0.039,3.977 -0.247,6.693c-1.658,-2.203 -3.15,-4.458 -3.458,-5.906c-0.217,-1.02 0.431,-2.006 1.463,-2.225Zm3.1,11.905c1.758,1.901 3.787,3.573 5.921,4.915c-2.54,1.255 -4.989,2.781 -7.36,4.317c0.717,-3.023 1.111,-6.187 1.439,-9.232Zm15.751,2.084c1.032,-0.219 2.025,0.418 2.242,1.438c0.217,1.02 -0.431,2.006 -1.463,2.226c-2.002,0.425 -4.999,0.044 -7.318,-0.838c2.204,-1.217 4.893,-2.476 6.539,-2.826Zm-19.962,10.729c-0.744,2.44 -1.551,4.852 -2.214,6.094c-0.255,0.384 -0.651,0.665 -1.19,0.779c-1.032,0.22 -2.025,-0.417 -2.242,-1.438c-0.103,-0.485 0.007,-1.009 0.237,-1.39c0.891,-1.063 3.007,-2.474 5.409,-4.045Z"/></clipPath><g clip-path="url(#_clip11)"><path d="M-14.848,2.516l73.361,-15.593l15.516,72.995l-73.362,15.593l-15.515,-72.995Z" style="fill:#f00;fill-rule:nonzero;"/></g><path d="M23.941,15.57c-1.833,0.39 -3.019,2.194 -2.634,4.006c0.505,2.375 2.59,5.234 4.707,7.854c-0.404,3.925 -0.905,8.183 -1.948,11.901c-0.004,0.001 -0.008,0.002 -0.011,0.003c-3.198,2.098 -6.078,3.78 -7.534,5.55c-0.02,0.023 -0.04,0.047 -0.057,0.072c-0.472,0.735 -0.641,1.654 -0.451,2.549c0.385,1.812 2.203,2.977 4.036,2.588c0.903,-0.192 1.698,-0.701 2.183,-1.457c0.009,-0.018 0.017,-0.035 0.025,-0.054c0.988,-1.837 2.001,-5.151 2.869,-8.136c0.001,-0.005 0.008,-0.009 0.009,-0.014c3.096,-2.031 6.372,-4.141 9.651,-5.665c2.753,1.422 6.595,1.985 9.407,1.387c1.833,-0.39 3.019,-2.194 2.634,-4.006c-0.385,-1.812 -2.202,-2.978 -4.035,-2.588c-2.277,0.484 -5.6,2.076 -7.983,3.491c-2.636,-1.546 -5.21,-3.663 -7.221,-6.075c0.345,-3.269 0.861,-6.593 0.388,-8.817c-0.385,-1.813 -2.202,-2.978 -4.035,-2.589Zm0.311,1.466c1.032,-0.22 2.025,0.417 2.242,1.438c0.293,1.375 0.039,3.977 -0.247,6.693c-1.658,-2.203 -3.15,-4.458 -3.458,-5.906c-0.217,-1.02 0.431,-2.006 1.463,-2.225Zm3.1,11.905c1.758,1.901 3.787,3.573 5.921,4.915c-2.54,1.255 -4.989,2.781 -7.36,4.317c0.717,-3.023 1.111,-6.187 1.439,-9.232Zm15.751,2.084c1.032,-0.219 2.025,0.418 2.242,1.438c0.217,1.02 -0.431,2.006 -1.463,2.226c-2.002,0.425 -4.999,0.044 -7.318,-0.838c2.204,-1.217 4.893,-2.476 6.539,-2.826Zm-19.962,10.729c-0.744,2.44 -1.551,4.852 -2.214,6.094c-0.255,0.384 -0.651,0.665 -1.19,0.779c-1.032,0.22 -2.025,-0.417 -2.242,-1.437c-0.103,-0.486 0.007,-1.01 0.237,-1.391c0.891,-1.063 3.007,-2.474 5.409,-4.045Z" style="fill:none;stroke:#f00;stroke-width:1.25px;"/><defs><linearGradient id="_Linear9" x1="0" y1="0" x2="1" y2="0" gradientUnits="userSpaceOnUse" gradientTransform="matrix(2.61258e-13,4266.67,-4266.67,2.61258e-13,12.5,8.33333)"><stop offset="0" style="stop-color:#dee0e1;stop-opacity:0"/><stop offset="1" style="stop-color:#fff;stop-opacity:0"/></linearGradient><linearGradient id="_Linear10" x1="0" y1="0" x2="1" y2="0" gradientUnits="userSpaceOnUse" gradientTransform="matrix(2.80648e-15,45.8333,-45.8333,2.80648e-15,31.25,8.33333)"><stop offset="0" style="stop-color:#dee0e1;stop-opacity:1"/><stop offset="1" style="stop-color:#fff;stop-opacity:1"/></linearGradient></defs></svg>