<?xml version="1.0" encoding="UTF-8" standalone="no"?><!DOCTYPE svg PUBLIC "-//W3C//DTD SVG 1.1//EN" "http://www.w3.org/Graphics/SVG/1.1/DTD/svg11.dtd"><svg width="100%" height="100%" viewBox="0 0 67 67" version="1.1" xmlns="http://www.w3.org/2000/svg" xmlns:xlink="http://www.w3.org/1999/xlink" xml:space="preserve" style="fill-rule:evenodd;clip-rule:evenodd;stroke-miterlimit:10;"><rect id="Page-64" x="0" y="0" width="66.667" height="66.667" style="fill:none;"/><g><clipPath id="_clip1"><path d="M-81.25,-85.417l225,0l0,233.334l-225,0l0,-233.334Zm85.417,87.5l41.666,0l-1.473,-0.61l12.5,12.5l-0.61,-1.473l0,50l2.083,-2.083l-54.166,0l2.083,2.083l0,-62.5l-2.083,2.083Zm0,-4.166l-2.084,0l0,66.666l58.334,0l0,-2.083l0,-50l0,-0.863l-0.611,-0.61l-12.5,-12.5l-0.61,-0.61l-0.863,0l-41.666,0Z"/></clipPath><g clip-path="url(#_clip1)"><clipPath id="_clip2"><path d="M4.167,0l41.666,0l12.5,12.5l0,50l-54.166,0l0,-62.5Z"/></clipPath><g clip-path="url(#_clip2)"><path d="M4.167,0l41.666,0l12.5,12.5l0,50l-54.166,0l0,-62.5Z" style="fill:#77a5d2;fill-rule:nonzero;"/></g></g></g><clipPath id="_clip3"><path d="M4.167,0l41.666,0l12.5,12.5l0,50l-54.166,0l0,-62.5Z"/></clipPath><g clip-path="url(#_clip3)"><path d="M4.167,0l41.666,0l12.5,12.5l0,50l-54.166,0l0,-62.5Z" style="fill:none;stroke:#215996;stroke-width:8.33px;"/></g><clipPath id="_clip4"><path d="M37.5,8.333l4.167,0l0,12.5l-4.167,0l0,-12.5Zm4.167,8.334l8.333,0l0,4.166l-8.333,0l0,-4.166Z"/></clipPath><g clip-path="url(#_clip4)"><path d="M37.5,8.333l4.167,0l0,12.5l-4.167,0l0,-12.5Zm4.167,8.334l8.333,0l0,4.166l-8.333,0l0,-4.166Z" style="fill:none;stroke:#215996;stroke-width:8.33px;"/></g><clipPath id="_clip5"><path d="M41.667,8.333l4.166,0l0,8.334l-4.166,0l0,-8.334Zm4.166,4.167l4.167,0l0,4.167l-4.167,0l0,-4.167Z"/></clipPath><g clip-path="url(#_clip5)"><path d="M41.667,8.333l4.166,0l0,8.334l-4.166,0l0,-8.334Zm4.166,4.167l4.167,0l0,4.167l-4.167,0l0,-4.167Z" style="fill:none;stroke:#fff;stroke-width:8.33px;"/></g><g><g opacity="0.5"><rect x="4.167" y="62.5" width="54.167" height="4.167" style="fill:#d8d8d8;fill-rule:nonzero;"/><clipPath id="_clip6"><rect x="4.167" y="62.5" width="54.167" height="4.167"/></clipPath><g clip-path="url(#_clip6)"><rect x="4.167" y="62.5" width="54.167" height="4.167" style="fill:none;stroke:#979797;stroke-width:8.33px;"/></g></g></g><clipPath id="_clip7"><path d="M33.333,25l0,-16.667l-20.833,0l0,45.834l37.5,0l0,-29.167l-16.667,0Z"/></clipPath><g clip-path="url(#_clip7)"><rect x="0" y="0" width="66.667" height="66.667" style="fill:#215996;fill-rule:nonzero;"/></g><clipPath id="_clip8"><path d="M35.417,31.25l0,6.25l4.272,0l0,2.083l4.167,0l0,2.084l1.977,0l0,6.25l-1.977,0l0,2.083l-8.545,0l0,-2.083l8.439,0l0,-6.25l-4.167,0l0,-2.084l-4.272,0l0,-2.083l-1.978,0l0,-6.25l1.978,0l0,-2.083l8.545,0l0,2.083l-0.106,0l-8.333,0Z"/></clipPath><g clip-path="url(#_clip8)"><rect x="12.5" y="8.333" width="54.167" height="62.5" style="fill:#fff;fill-rule:nonzero;"/></g><path d="M35.417,31.25l0,6.25l4.272,0l0,2.083l4.167,0l0,2.084l1.977,0l0,6.25l-1.977,0l0,2.083l-8.545,0l0,-2.083l8.439,0l0,-6.25l-4.167,0l0,-2.084l-4.272,0l0,-2.083l-1.978,0l0,-6.25l1.978,0l0,-2.083l8.545,0l0,2.083l-0.106,0l-8.333,0Z" style="fill:none;stroke:#fff;stroke-width:2.08px;"/><clipPath id="_clip9"><rect x="8.333" y="8.333" width="4.167" height="16.667"/></clipPath><g clip-path="url(#_clip9)"><rect x="-12.5" y="-12.5" width="45.833" height="58.333" style="fill:#77a5d2;fill-rule:nonzero;"/></g><clipPath id="_clip10"><path d="M16.667,51.25l2.75,0l0,-9.167l11,0l0,-13.75l-13.75,0l0,22.917Zm2.75,-18.333l8.25,0l0,4.583l-8.25,0l0,-4.583Z"/></clipPath><g clip-path="url(#_clip10)"><rect x="-4.167" y="7.5" width="55.417" height="64.583" style="fill:#fff;fill-rule:nonzero;"/></g><clipPath id="_clip11"><rect x="16.667" y="29.167" width="4.167" height="22.083"/></clipPath><g clip-path="url(#_clip11)"><rect x="-4.167" y="8.333" width="45.833" height="63.75" style="fill:#fff;fill-rule:nonzero;"/></g><clipPath id="_clip12"><rect x="26.25" y="29.167" width="4.167" height="12.5"/></clipPath><g clip-path="url(#_clip12)"><rect x="5.417" y="8.333" width="45.833" height="54.167" style="fill:#fff;fill-rule:nonzero;"/></g></svg>