<?xml version="1.0" encoding="UTF-8" standalone="no"?><!DOCTYPE svg PUBLIC "-//W3C//DTD SVG 1.1//EN" "http://www.w3.org/Graphics/SVG/1.1/DTD/svg11.dtd"><svg width="100%" height="100%" viewBox="0 0 67 67" version="1.1" xmlns="http://www.w3.org/2000/svg" xmlns:xlink="http://www.w3.org/1999/xlink" xml:space="preserve" style="fill-rule:evenodd;clip-rule:evenodd;stroke-miterlimit:10;"><rect id="Page-75" x="0" y="0" width="66.667" height="66.667" style="fill:none;"/><g><clipPath id="_clip1"><path d="M-81.25,-85.417l225,0l0,233.334l-225,0l0,-233.334Zm85.417,87.5l41.666,0l-1.473,-0.61l12.5,12.5l-0.61,-1.473l0,50l2.083,-2.083l-54.166,0l2.083,2.083l0,-62.5l-2.083,2.083Zm0,-4.166l-2.084,0l0,66.666l58.334,0l0,-2.083l0,-50l0,-0.863l-0.611,-0.61l-12.5,-12.5l-0.61,-0.61l-0.863,0l-41.666,0Z"/></clipPath><g clip-path="url(#_clip1)"><clipPath id="_clip2"><path d="M4.167,0l41.666,0l12.5,12.5l0,50l-54.166,0l0,-62.5Z"/></clipPath><g clip-path="url(#_clip2)"><path d="M4.167,0l41.666,0l12.5,12.5l0,50l-54.166,0l0,-62.5Z" style="fill:#fff;fill-rule:nonzero;"/></g></g></g><clipPath id="_clip3"><path d="M4.167,0l41.666,0l12.5,12.5l0,50l-54.166,0l0,-62.5Z"/></clipPath><g clip-path="url(#_clip3)"><path d="M4.167,0l41.666,0l12.5,12.5l0,50l-54.166,0l0,-62.5Z" style="fill:none;stroke:#9b9b9b;stroke-width:8.33px;"/></g><g><clipPath id="_clip4"><path d="M-47.917,-77.083l183.334,0l0,183.333l-183.334,0l0,-183.333Zm85.417,87.5l4.167,0l-2.084,-2.084l0,12.5l2.084,-2.083l-4.167,0l2.083,2.083l0,-12.5l-2.083,2.084Zm0,-4.167l-2.083,0l0,16.667l8.333,0l0,-2.084l0,-12.5l0,-2.083l-2.083,0l-4.167,0Zm4.167,12.5l8.333,0l-2.083,-2.083l0,4.166l2.083,-2.083l-8.333,0l2.083,2.083l0,-4.166l-2.083,2.083Zm0,-4.167l-2.084,0l0,8.334l12.5,0l0,-2.084l0,-4.166l0,-2.084l-2.083,0l-8.333,0Z"/></clipPath><g clip-path="url(#_clip4)"><clipPath id="_clip5"><path d="M37.5,8.333l4.167,0l0,12.5l-4.167,0l0,-12.5Zm4.167,8.334l8.333,0l0,4.166l-8.333,0l0,-4.166Z"/></clipPath><g clip-path="url(#_clip5)"><path d="M37.5,8.333l4.167,0l0,12.5l-4.167,0l0,-12.5Zm4.167,8.334l8.333,0l0,4.166l-8.333,0l0,-4.166Z" style="fill:#d8d8d8;fill-rule:nonzero;"/></g></g></g><clipPath id="_clip6"><path d="M37.5,8.333l4.167,0l0,12.5l-4.167,0l0,-12.5Zm4.167,8.334l8.333,0l0,4.166l-8.333,0l0,-4.166Z"/></clipPath><g clip-path="url(#_clip6)"><path d="M37.5,8.333l4.167,0l0,12.5l-4.167,0l0,-12.5Zm4.167,8.334l8.333,0l0,4.166l-8.333,0l0,-4.166Z" style="fill:none;stroke:#9b9b9b;stroke-width:8.33px;"/></g><g><g opacity="0.5"><rect x="4.167" y="62.5" width="54.167" height="4.167" style="fill:#d8d8d8;fill-rule:nonzero;"/><clipPath id="_clip7"><rect x="4.167" y="62.5" width="54.167" height="4.167"/></clipPath><g clip-path="url(#_clip7)"><rect x="4.167" y="62.5" width="54.167" height="4.167" style="fill:none;stroke:#979797;stroke-width:8.33px;"/></g></g></g><g><clipPath id="_clip8"><path d="M33.333,25l0,-16.667l-20.833,0l0,45.834l37.5,0l0,-29.167l-16.667,0Z"/></clipPath><g clip-path="url(#_clip8)"><rect x="0" y="0" width="66.667" height="66.667" style="fill:url(#_Linear9);fill-rule:nonzero;"/><rect x="0" y="0" width="66.667" height="66.667" style="fill:url(#_Linear10);fill-rule:nonzero;"/></g></g><clipPath id="_clip11"><path d="M29.959,32.305c-3.397,0 -6.134,2.772 -6.134,6.214c0,3.442 2.737,6.214 6.134,6.214c3.398,0 6.135,-2.772 6.135,-6.214c0,-3.442 -2.737,-6.214 -6.135,-6.214Zm15.572,2.39c1.18,0.335 1.841,1.099 1.841,2.055l0,3.585c0,1.052 -0.661,1.912 -1.652,2.104c-0.047,0 -0.094,0.047 -0.142,0.047l-2.5,0.622c-0.236,0.573 -0.425,1.147 -0.708,1.673l1.368,2.39c0.85,1.529 0.189,2.485 -0.141,2.82l-2.501,2.533c-0.425,0.383 -0.944,0.622 -1.51,0.622c-0.378,0 -0.803,-0.096 -1.133,-0.335c-0.047,-0.048 -0.094,-0.048 -0.141,-0.096l-2.218,-1.338c-0.519,0.239 -1.086,0.478 -1.652,0.669l-0.613,2.486c-0.331,1.195 -1.086,1.864 -2.076,1.864l-3.54,0c-1.038,0 -1.887,-0.717 -2.076,-1.721l-0.047,-0.191l-0.613,-2.486c-0.567,-0.239 -1.133,-0.43 -1.652,-0.717l-2.171,1.291c-0.519,0.287 -0.991,0.43 -1.415,0.43c-0.519,0 -0.991,-0.191 -1.369,-0.573l-2.501,-2.534c-0.707,-0.717 -0.849,-1.816 -0.283,-2.677l0.047,-0.143l1.322,-2.247c-0.236,-0.573 -0.472,-1.099 -0.661,-1.672l-2.454,-0.622c-1.132,-0.334 -1.84,-1.099 -1.84,-2.103l0,-3.585c0,-1.052 0.661,-1.912 1.652,-2.103c0.047,-0.048 0.047,-0.048 0.094,-0.048l0.094,-0.048l2.36,-0.717c0.236,-0.573 0.424,-1.147 0.708,-1.673l-1.275,-2.198c-0.613,-1.1 -0.566,-2.104 0.142,-2.821l2.501,-2.533c0.425,-0.43 0.944,-0.621 1.51,-0.621c0.377,0 0.802,0.095 1.132,0.334c0.048,0.048 0.095,0.048 0.142,0.096l2.218,1.338c0.519,-0.239 1.085,-0.478 1.651,-0.669l0.614,-2.486c0.33,-1.194 1.085,-1.864 2.076,-1.864l3.539,0c1.038,0 1.888,0.717 2.076,1.721c0,0.048 0.048,0.096 0.048,0.143l0.613,2.534c0.566,0.239 1.133,0.43 1.652,0.717l2.17,-1.291c0.519,-0.287 0.991,-0.43 1.416,-0.43c0.519,0 0.991,0.191 1.368,0.574l2.501,2.533c0.708,0.717 0.802,1.864 0.283,2.677c0,0.048 -0.047,0.143 -0.094,0.191l-1.274,2.199c0.236,0.526 0.472,1.099 0.661,1.673l2.453,0.621Z"/></clipPath><g clip-path="url(#_clip11)"><rect x="0" y="0" width="66.667" height="66.667" style="fill:#4a4a4a;fill-rule:nonzero;"/></g><defs><linearGradient id="_Linear9" x1="0" y1="0" x2="1" y2="0" gradientUnits="userSpaceOnUse" gradientTransform="matrix(2.61258e-13,4266.67,-4266.67,2.61258e-13,12.5,8.33333)"><stop offset="0" style="stop-color:#dee0e1;stop-opacity:0"/><stop offset="1" style="stop-color:#fff;stop-opacity:0"/></linearGradient><linearGradient id="_Linear10" x1="0" y1="0" x2="1" y2="0" gradientUnits="userSpaceOnUse" gradientTransform="matrix(2.80648e-15,45.8333,-45.8333,2.80648e-15,31.25,8.33333)"><stop offset="0" style="stop-color:#dee0e1;stop-opacity:1"/><stop offset="1" style="stop-color:#fff;stop-opacity:1"/></linearGradient></defs></svg>